<svg width="223" height="273" viewBox="0 0 223 273" fill="none" xmlns="http://www.w3.org/2000/svg">
<path d="M108.253 22.6011L216.506 85.2008V210.4L108.253 273L-0.000244141 210.4V85.2008L108.253 22.6011Z" fill="#009ED8"/>
<path d="M58.0215 180.223V68.7181C69.67 54.2125 80.3234 62.6741 84.194 68.7181V120.614L204.521 0.564277C221.001 -2.81213 223.561 9.78683 222.781 16.5084L58.0215 180.223Z" fill="#0ACF83"/>
<path d="M58.0215 237.516V202.212L87.0311 174.718L104.187 191.277L58.0215 237.516Z" fill="white"/>
<path d="M173.141 235.542L98.8844 161.284L169.069 90.3628C189.032 88.1134 189.032 101.506 186.537 108.484L133.942 161.284L195.662 222.507L173.141 235.542Z" fill="white"/>
</svg>
