<svg width="983" height="162" viewBox="0 0 983 162" fill="none" xmlns="http://www.w3.org/2000/svg">
<path d="M1.50079 148.579C44.605 143.52 80.0503 112.67 131.482 107.485C158.894 104.721 180.854 110.1 205.355 118.458C229.857 126.816 225.061 130.425 280.164 136.869C325.638 142.186 337.533 84.8576 382.092 87.0602C426.651 89.2628 447.26 20.3361 494.305 26.0899C541.35 31.8436 550.75 16.9675 594.972 45.1608C639.195 73.3541 680.051 7.63744 735.565 1.88371C791.078 -3.87002 805.536 57.199 831.881 54.8976C858.226 52.5961 881.947 96.1118 904.528 102.441C927.11 108.77 933.513 85.7785 981.499 85.7785" stroke="#448DF2" stroke-width="3" stroke-linecap="round" stroke-linejoin="round"/>
<path d="M131.482 107.837C80.0503 113.039 44.605 143.991 1.50079 149.067V161.586H981.499V86.0579C933.513 86.0579 927.11 109.126 904.528 102.776C881.947 96.4255 858.226 52.7655 831.881 55.0746C805.536 57.3837 791.078 -3.88783 735.565 1.88498C680.051 7.65778 639.195 73.5924 594.972 45.3056C550.75 17.0188 541.35 31.9442 494.305 26.1714C447.26 20.3986 426.651 89.5539 382.092 87.3439C337.533 85.134 325.638 142.653 280.164 137.318C225.061 130.853 229.857 127.232 205.355 118.846C180.854 110.46 158.894 105.064 131.482 107.837Z" fill="#FBFBFB"/>
</svg>
